<?xml version="1.0" encoding="utf-8"?>
<!-- Generator: Adobe Illustrator 21.0.0, SVG Export Plug-In . SVG Version: 6.00 Build 0)  -->
<svg version="1.1" id="图层_1" xmlns="http://www.w3.org/2000/svg" xmlns:xlink="http://www.w3.org/1999/xlink" x="0px" y="0px"
	 width="2000px" height="2000px" viewBox="0 0 2000 2000" enable-background="new 0 0 2000 2000" xml:space="preserve" opacity="0.2" >
<g>
	<path fill="#3399ff" d="M1585.456,399.137c-261.915,107.846-585.457-165.623-585.457-165.623s-323.54,273.468-585.455,165.623
		c0,0-34.667,835.816,42.369,974.478c77.034,138.659,196.438,246.507,543.086,392.87c346.65-146.363,466.053-254.211,543.089-392.87
		C1620.122,1234.954,1585.456,399.137,1585.456,399.137z M1465.51,1335.652c-66.03,118.851-168.379,211.296-465.511,336.752
		c-297.132-125.456-399.477-217.901-465.509-336.752c-66.032-118.852-36.316-835.277-36.316-835.277
		c224.501,92.442,501.824-141.963,501.824-141.963s277.325,234.405,501.826,141.963
		C1501.825,500.375,1531.54,1216.801,1465.51,1335.652z"/>
	<path opacity="0.3" fill="#3399ff" d="M1410.839,833.419c-0.088-18.307-0.25-36.216-0.463-53.493
		c-0.876-70.224-2.626-130.011-3.768-163.848c-0.635-18.889-1.085-29.706-1.085-29.706
		c-181.42,74.702-405.524-114.72-405.524-114.72s-224.104,189.422-405.524,114.72c0,0-13.131,316.641,1.611,520.429
		c4.934,68.195,12.992,123.742,25.706,150.563c0.664,1.405,1.34,2.749,2.031,3.994c6.717,12.09,13.902,23.842,21.804,35.353
		c11.092,16.152,23.614,31.831,38.25,47.294c57.775,61.043,148.66,118.776,316.123,189.48
		c240.112-101.38,322.819-176.083,376.179-272.127c25.77-46.385,33.49-205.404,34.591-357.441
		C1410.938,880.091,1410.948,856.442,1410.839,833.419z"/>
</g>
<polygon fill="#468CCB" points="1292.701,939.532 1060.468,939.532 1060.468,707.299 939.532,707.299 939.532,939.532 
	707.299,939.532 707.299,1060.468 939.532,1060.468 939.532,1292.701 1060.468,1292.701 1060.468,1060.468 1292.701,1060.468 "/>
</svg>
